<?xml version="1.0" encoding="UTF-8"?>
<svg width="146px" height="67px" viewBox="0 0 146 67" version="1.1" xmlns="http://www.w3.org/2000/svg" xmlns:xlink="http://www.w3.org/1999/xlink">
    <title>Group 4</title>
    <g id="Symbols" stroke="none" stroke-width="1" fill="none" fill-rule="evenodd">
        <g id="Sidebar/2" transform="translate(-47.000000, -18.000000)">
            <g id="Group-4" transform="translate(46.999991, 17.999885)">
                <path d="M71.1586122,61.5708061 C73.7230943,61.5708061 75.4905076,60.6351167 76.7727486,59.214255 L76.7727486,59.2489102 C76.7727486,60.3578754 77.7777484,61.4321855 79.3025755,61.4321855 C80.7234372,61.4321855 81.8670576,60.3232202 81.8670576,58.9023585 L81.8670576,50.4464987 C81.8670576,47.951327 81.2432647,45.9066724 79.8570581,44.5204658 C78.5401619,43.2035696 76.4608522,42.441156 73.5844736,42.441156 C71.123957,42.441156 69.3218885,42.7877077 67.6584407,43.4115006 C66.8267168,43.7233971 66.237579,44.5204658 66.237579,45.4561552 C66.237579,46.6690859 67.2079236,47.6047754 68.4208543,47.6047754 C68.6634404,47.6047754 68.8713714,47.5701202 69.1832679,47.4661547 C70.1882676,47.1542582 71.3665432,46.9463273 72.82206,46.9463273 C75.4558524,46.9463273 76.8074038,48.159258 76.8074038,50.3425332 L76.8074038,50.6544297 C75.4905076,50.2039126 74.1389562,49.8920161 72.2675774,49.8920161 C67.8663717,49.8920161 64.7820622,51.7633949 64.7820622,55.818049 L64.7820622,55.8873593 C64.7820622,59.5608066 67.6584407,61.5708061 71.1586122,61.5708061 Z M72.7527497,57.932014 C71.0546467,57.932014 69.8763712,57.1002901 69.8763712,55.6794284 L69.8763712,55.610118 C69.8763712,53.9466702 71.2625777,53.045636 73.5151633,53.045636 C74.7974043,53.045636 75.9756799,53.3228773 76.8767141,53.7387392 L76.8767141,54.6744286 C76.8767141,56.5804626 75.2132663,57.932014 72.7527497,57.932014 Z M100.684811,61.4321855 C102.001707,61.4321855 103.145328,60.4618409 103.145328,59.0409792 C103.145328,58.4518414 102.937397,57.9666691 102.48688,57.3428762 L97.5311914,50.6544297 L101.689811,47.0849479 C102.417569,46.3918446 102.902742,45.6987414 102.902742,44.7977071 C102.902742,43.5847764 102.001707,42.441156 100.580846,42.441156 C99.6451563,42.441156 99.0213634,42.8916732 98.2589498,43.6194316 L91.6744688,49.857361 L91.6744688,38.3518468 C91.6744688,36.8963299 90.4961932,35.7180544 89.0406764,35.7180544 C87.5851595,35.7180544 86.406884,36.8963299 86.406884,38.3518468 L86.406884,58.7983931 C86.406884,60.2539099 87.5851595,61.4321855 89.0406764,61.4321855 C90.4961932,61.4321855 91.6744688,60.2539099 91.6744688,58.7983931 L91.6744688,55.7833939 L93.7884337,53.8773599 L98.3975704,60.2192547 C99.0213634,61.0856338 99.6451563,61.4321855 100.684811,61.4321855 Z M112.779463,61.5708061 C115.447911,61.5708061 117.007393,60.1499444 118.220324,58.5904621 L118.220324,58.7983931 C118.220324,60.2539099 119.398599,61.4321855 120.854116,61.4321855 C122.309633,61.4321855 123.487909,60.2539099 123.487909,58.7983931 L123.487909,45.0749484 C123.487909,43.6194316 122.309633,42.441156 120.854116,42.441156 C119.398599,42.441156 118.220324,43.6194316 118.220324,45.0749484 L118.220324,53.0109808 C118.220324,55.5061526 116.938083,56.7883936 114.928083,56.7883936 C112.918084,56.7883936 111.739808,55.5061526 111.739808,53.0109808 L111.739808,45.0749484 C111.739808,43.6194316 110.561533,42.441156 109.106016,42.441156 C107.650499,42.441156 106.472223,43.6194316 106.472223,45.0749484 L106.472223,54.6744286 C106.472223,58.9370137 108.794119,61.5708061 112.779463,61.5708061 Z M142.582903,61.4321855 C144.03842,61.4321855 145.216696,60.2539099 145.216696,58.7983931 L145.216696,49.1989129 C145.216696,44.9363278 142.8948,42.3025354 138.909456,42.3025354 C136.241009,42.3025354 134.681526,43.7233971 133.468596,45.2828794 L133.468596,45.0749484 C133.468596,43.6194316 132.29032,42.441156 130.834803,42.441156 C129.379286,42.441156 128.201011,43.6194316 128.201011,45.0749484 L128.201011,58.7983931 C128.201011,60.2539099 129.379286,61.4321855 130.834803,61.4321855 C132.29032,61.4321855 133.468596,60.2539099 133.468596,58.7983931 L133.468596,50.8623607 C133.468596,48.3671889 134.750837,47.0849479 136.760836,47.0849479 C138.770836,47.0849479 139.949111,48.3671889 139.949111,50.8623607 L139.949111,58.7983931 C139.949111,60.2539099 141.127387,61.4321855 142.582903,61.4321855 Z" id="akun" fill="#ffffff" fill-rule="nonzero"></path>
                <g id="Group-6" fill="#F0B129">
                    <path d="M65.3621282,1.09593497 C65.8019201,1.2373623 66.2285362,1.43791743 66.6361871,1.65764915 C67.5672763,2.15963625 68.2534155,2.83461213 68.1436172,4.01397219 C68.0214417,5.32337348 67.5918312,6.48755208 66.2025839,6.85250648 C65.1207717,7.13655967 63.9678901,7.13735869 62.8649168,7.35629139 C58.3062932,8.2609868 53.7430781,9.14770416 49.2042182,10.1442874 C45.4501164,10.9686808 41.7193716,11.9053372 37.9970114,12.8641665 C36.9798803,13.1262466 36.0206429,13.6276344 35.0512242,14.056311 C34.3920355,14.3479549 34.0849996,14.8639249 34.0239119,15.6217996 C33.5851182,21.0597601 33.1507164,26.4987194 32.6334668,31.9294887 C31.9742781,38.8514374 31.1927142,45.7618002 30.5564833,52.6855466 C30.2676141,55.8273107 30.1402481,58.9880516 30.0538069,62.1431993 C29.9865305,64.5936075 28.0570759,66.7216093 25.4730241,66.9711047 C22.5302314,67.2553576 20.4243011,65.4329826 20.0623661,62.2838276 C20.0244358,61.953431 20.0132563,61.6198383 19.9896996,61.2878436 L19.9371961,61.283449 C20.1396241,59.2651133 20.3386584,57.2463781 20.5450791,55.2284419 C21.3200551,47.6494954 22.131564,40.0741445 22.8610236,32.4908034 C23.2718687,28.2188193 23.5649302,23.9352493 23.877955,19.6544759 C23.9875536,18.1553063 23.647179,17.8628634 22.1736866,18.0700105 C21.6171093,18.1483149 21.0499514,18.2623756 20.5293081,18.4667261 C16.2367956,20.1512694 11.8330873,21.5919104 8.09196162,24.4526176 C7.33235738,25.0333086 6.33319334,25.4472033 5.38812988,25.6086062 C3.16521447,25.9885423 1.34316248,25.0111357 0.487135417,23.2119324 C-0.423790765,21.2976697 -0.0271196441,18.5390378 1.42581061,17.170309 C4.11087683,14.6409971 7.35092327,12.985019 10.7396964,11.691798 C14.1450391,10.3921847 17.6587827,9.37602539 21.1276087,8.24380777 C22.6775607,7.73782555 23.9508211,7.1014026 24.5429331,5.29900324 C25.4820076,2.44029358 29.2638585,1.21079473 31.7049729,2.90412726 C33.2351612,3.96563122 34.6950786,3.98640585 36.4103269,3.52756607 C43.4525868,1.64386598 50.558929,0.0953566294 57.8986423,0.00207052711 C60.4447638,-0.0302899623 62.9367848,0.315887372 65.3621282,1.09593497 Z M79.416102,12.1908442 C80.0528251,12.3558916 80.6909409,12.5676393 81.2803077,12.8564223 C83.3530402,13.8718531 83.8329702,15.9657798 82.1685364,17.5755409 C81.2345433,18.4788113 79.9503524,19.2066564 78.6974009,19.5529167 C75.2879479,20.4951039 71.8052717,21.1682658 68.3635847,21.9982926 C66.9846813,22.3307823 65.6185124,22.741904 64.280996,23.2148936 C63.0559011,23.648168 62.4508152,24.5574255 62.2651706,25.9055456 C61.6541155,30.3444627 60.9899337,34.7773927 60.2505391,39.1967516 C59.3147552,44.7904019 58.3509157,50.3812582 57.2531653,55.9445733 C56.9517167,57.4729084 56.2439593,58.9581355 55.5129216,60.3527561 C54.8192914,61.676129 53.5754927,62.3137668 51.9500582,62.3794266 C50.8453437,61.9740925 49.6753651,61.6904983 48.6502409,61.136881 C46.8216519,60.1487919 46.2153722,58.6851187 46.5663658,56.6450768 C47.855133,49.1520841 49.1592214,41.6616858 50.4223208,34.1643024 C50.5976186,33.1243241 50.6748213,32.0450298 50.6161234,30.994075 C50.5542419,29.8862416 50.0593887,29.5677221 49.0093925,29.915579 C48.3875264,30.121672 47.7877686,30.3997003 47.1948498,30.6926596 L46.3086919,31.1361714 L46.3086919,31.1361714 C45.2147221,31.6806083 44.1878072,32.393685 43.0504607,32.8099956 C40.4257688,33.7705436 37.7334252,32.3637489 37.3072187,29.8984156 C37.1400789,28.9318804 36.8973282,27.9366066 36.9834848,26.9812475 C37.0517336,26.222269 37.387406,25.3183999 37.9164831,24.7987101 C40.6283264,22.1353997 43.6834032,19.9780085 47.2367158,18.5083482 C53.6467261,15.8572118 60.1484644,13.5289856 66.9944311,12.3048008 C71.1219883,11.5667774 75.2682493,11.1155414 79.416102,12.1908442 Z M51.6728847,24.5620157 C51.6305028,24.7104985 52.0571072,25.1755051 52.2811542,25.1856834 C53.1536637,25.2247998 53.3484612,24.6246819 53.324783,23.7687105 C52.5046042,23.6551531 51.8905644,23.7972495 51.6728847,24.5620157 Z M76.8743832,14.7477818 C75.849259,14.8775047 74.9289953,14.9639201 74.0242516,15.132959 C73.8401988,15.1672857 73.5564591,15.540688 73.5861065,15.7109243 C73.8027197,16.9533182 73.0446939,17.279965 72.2355691,17.5572068 L72.0037979,17.6358228 C71.9266092,17.6620789 71.8497548,17.6886353 71.7740325,17.7162403 C71.0495611,17.9802763 70.3153398,18.2177689 69.585695,18.4668368 C69.6209137,18.6085341 69.6561325,18.7502314 69.6913512,18.8919287 C70.1187516,18.8134963 70.5586874,18.7755773 70.9713635,18.6486484 C72.0742872,18.3091737 73.1419922,17.7597474 74.2664053,17.60408 C76.7372887,17.2618111 76.1958752,17.0289087 76.8743832,14.7477818 Z" id="Combined-Shape"></path>
                </g>
            </g>
        </g>
    </g>
</svg>