<?xml version="1.0" encoding="UTF-8"?>
<svg width="254px" height="43px" viewBox="0 0 254 43" version="1.1" xmlns="http://www.w3.org/2000/svg" xmlns:xlink="http://www.w3.org/1999/xlink">
    <title>WoodBoard</title>
    <defs>
        <rect id="path-1" x="0" y="0" width="254" height="43"></rect>
    </defs>
    <g id="Symbols" stroke="none" stroke-width="1" fill="none" fill-rule="evenodd">
        <g id="WoodBoard">
            <mask id="mask-2" fill="white">
                <use xlink:href="#path-1"></use>
            </mask>
            <g id="Rectangle"></g>
            <g id="Group-42" mask="url(#mask-2)">
                <g transform="translate(-11.000000, 0.000000)">
                    <g id="Group-3" stroke-width="1" fill="none" transform="translate(4.000000, 0.000000)">
                        <polygon id="Clip-2" points="0 0 262 0 262 39 0 39"></polygon>
                        <path d="M0.406409421,11.7797751 C0.742664348,15.6743027 -0.0575339591,20.8041643 0.00331960078,25.3638395 C0.0662536243,29.9240733 0.00331960078,39.0133992 0.00331960078,39.0133992 C0.00331960078,39.0133992 35.287852,39.3298435 56.9108902,39.5196263 C78.5337985,39.7094092 166.130938,42.179239 184.642252,41.9895959 C203.148366,41.7996734 250.963011,41.0505969 262,41.999511 C262,41.999511 261.556991,24.0658032 261.779731,17.225662 C262.011313,10.3853811 261.669466,1.64727212 261.669466,1.64727212 C261.669466,1.64727212 208.90852,3.15589885 187.610944,2.90662562 C170.830693,2.71187732 72.8160819,2.06547837 25.0358248,1.22779584 C12.1724095,1.0022747 3.58009253,2.05690985 0.525517837,1.93611305 C0.525517837,1.93611305 0.0682040589,7.88510778 0.406409421,11.7797751 Z" id="Fill-1" fill="#A8774E"></path>
                    </g>
                    <g id="Group-9" stroke-width="1" fill="none" transform="translate(11.000000, 35.963217)">
                        <path d="M178.595398,2.97374249 C158.397807,3.16103207 60.3690783,-1.555936 39.2284297,0.536359383 C18.087781,2.62865476 0,2.62865476 0,2.62865476 L0,7.03678267 C0,7.03678267 58.6238659,5.03654642 77.2875167,5.03654642 C95.9470532,5.03654642 256.442731,7.03678267 256.442731,7.03678267 L263,2.9835273 C263,2.9835273 261.796909,2.91916804 259.60283,2.80271498 C243.253993,2.15801985 197.265433,2.80271498 178.595398,2.97374249 Z" id="Fill-7" fill="#603D26"></path>
                    </g>
                    <path d="M266,17.5307957 C265.970763,17.3743942 265.940747,17.2238626 265.916448,17.065374 C261.906972,16.6748268 251.308551,15.8508166 243.935539,17.2391245 C234.691758,18.9819772 238.024499,20.3812424 226.210605,20.032437 C214.393722,19.6835012 195.897715,18.7949216 193.587875,18.2764095 C191.275045,17.7541146 175.35331,17.395526 163.020559,18.2764095 C150.688069,19.157293 146.297994,13.8339025 132.679343,15.2369505 C119.071346,16.6385636 112.835322,18.6729571 106.412053,20.0760051 C99.9921614,21.4777486 116.989033,22.3031937 126.75141,19.5003589 C136.511838,16.6956978 148.639281,20.5585148 160.19641,21.7845512 C171.75354,23.0124139 176.378808,22.6616519 194.872217,22.8348806 C213.349252,23.0124139 218.463751,23.9979129 218.475186,24 C242.530091,23.3173903 261.062092,22.7434398 265.974921,22.5912125 C265.969724,20.7286128 265.970763,18.9838034 266,17.5307957" id="Fill-10" fill="#B28562"></path>
                    <path d="M211.117418,10.9178595 C204.718931,10.3345231 194.243291,10.9178595 182.800906,10.9178595 C171.352672,10.9178595 169.996394,14.6621408 154.670387,11.892341 C139.34516,9.12497579 142.257616,6.43619122 127.709113,4.48695765 C113.16061,2.5398881 101.522354,7.02128589 96.8696772,7.60665106 C92.2095916,8.18971697 87.4220017,8.94089954 88.0569244,10.3108542 C89.1965358,12.7878361 95.6921133,12.1157752 100.541961,11.8290437 C105.390249,11.5444761 117.815107,8.38528953 124.410895,8.38528953 C131.004862,8.38528953 137.795221,10.3345231 139.153318,10.7241805 C140.509726,11.1137026 149.437116,14.231232 156.418926,14.8165971 C163.402296,15.4031796 182.603605,13.8418451 186.484627,13.6461373 C190.364219,13.4521877 203.945456,15.7909434 215.19639,15.9847577 C226.446414,16.1804655 234.590581,14.4266693 242.543296,14.4385713 C248.795562,14.4484446 261.028449,13.9543737 265.978897,13.7408128 C266.004112,12.1138817 266.004112,10.4594948 265.992544,8.89761931 C259.163193,9.29282195 237.83382,10.5936635 228.769958,11.892341 C217.908686,13.4521877 217.519154,11.5029542 211.117418,10.9178595" id="Fill-12" fill="#8E5E3D"></path>
                    <path d="M258,38.6797929 C256.66971,37.9046983 251.086676,34.7270359 245.778586,32.7853889 C239.698196,30.5649623 225.515846,29.011194 218.519934,28.6153615 C211.523762,28.2182034 208.942765,27.243867 199.180295,27.0093634 C189.420047,26.7768483 174.504601,30.9254005 165.480847,33.8104969 C159.111008,35.8470589 148.625243,37.5209291 143,38.3311528 C163.265876,38.7473999 181.012043,39.061176 188.253235,38.9898572 C203.8482,38.8405916 240.142105,38.3155104 258,38.6797929" id="Fill-14" fill="#B28562"></path>
                    <path d="M253.422824,29.0003664 C242.261748,34.1882696 232.497644,32.7620784 221.73877,32.3888973 C210.978855,32.016234 204.002971,29.2199 190.651578,29.0003664 C177.299795,28.7809624 172.716695,29.965356 160.563451,25.1160729 C148.40253,20.2666604 133.856632,25.1160729 128.477195,26.2343218 C123.096587,27.3524412 114.724381,26.4217537 108.549388,26.4217537 C102.369971,26.4217537 86.2299684,25.674356 76.6636477,26.048702 C67.0964162,26.4217537 55.5369115,27.7271756 48.9616681,26.6069851 C42.3868151,25.4889951 19.9767875,20.999987 11,23.841104 C10.5494864,23.9836898 7.0930917,26.7432875 4,26.2154233 C4.01145059,27.9806229 4.00585542,29.9388204 4,31.6512078 C6.84560273,31.8594798 10.1574574,32.2943122 11,32.0624384 C16.0079854,30.6842046 27.8370138,31.829061 42.1853888,31.747642 C56.5332433,31.664152 64.702071,29.032468 75.6648437,28.6599342 C86.6234525,28.2871414 97.5866155,28.6599342 106.55191,28.6599342 C115.52345,28.6599342 118.112586,30.1507169 124.287189,31.8308732 C130.467256,33.5090878 134.850882,33.8796801 141.827547,34.0672414 C148.801479,34.2546734 158.965833,32.2037954 170.323911,31.8308732 C181.68212,31.4560093 197.627592,32.2037954 206.791451,33.3220442 C215.958692,34.4415875 226.919513,35 241.265806,35 C248.365695,35 258.027784,33.4486384 266,31.8781195 C265.953027,29.276725 265.904882,26.279497 265.884713,23.4664649 C262.32527,24.9819711 257.983413,26.8794604 253.422824,29.0003664 Z" id="Fill-16" fill="#8E5E3D"></path>
                    <path d="M21.4046406,2.93378294 C16.2215562,4.31374915 12.5715463,5.07815262 10.454611,5.22699333 C10.454611,5.22699333 21.8976612,3.88258149 30.5590795,5.69638523 C39.2201054,7.51069089 50.653727,8.36495418 59.3189387,7.8536259 C67.9840197,7.33991352 69.1807775,4.15060534 80.7483459,4.20907871 C86.7270333,4.24019758 92.6204793,3.38466443 96.9666892,2 C53.855678,1.43521753 29.1792673,0.86383363 21.4046406,2.93378294 Z" id="Fill-18" fill="#B28562"></path>
                    <path d="M84.034833,13.2034003 C77.4191547,10.5934221 84.859593,9.00496208 82.4721298,9.00496208 C80.0827112,9.00496208 72.8275083,8.85565246 66.7645379,10.1950927 C60.7015675,11.5351721 40.1255842,11.8115483 30.387237,10.8135516 C20.6505844,9.81414863 19.3760006,8.41350697 11,8.95922852 C8.95367743,9.09409294 5.52229297,12.9979717 4.12553247,12.9156469 C4.15799102,14.1716118 10.8453637,12.3871024 10.7521594,13.788542 C20.6655414,13.6679144 20.7974952,16.2475013 28.4017905,15.464265 C38.5382438,14.419609 55.0045053,15.2904113 69.8873372,16.4843769 C84.7702994,17.6783425 83.8480334,18.2465628 92.6662002,17.8989833 C101.486062,17.5515316 125,14.7676998 125,14.7676998 C125,14.7676998 119.354037,13.2034003 105.710105,14.419609 C92.0715178,15.6382465 90.6459487,15.8118445 84.034833,13.2034003 Z" id="Fill-20" fill="#8E5E3D"></path>
                    <path d="M156.620502,2.22537253 C150.820925,2.15606447 143.913931,2.53554541 137.352845,2.45515917 C141.646727,4.59142717 150.637758,7.72881639 158.440785,7.86205885 C169.560707,8.05089012 172.981531,8.16304297 183.860295,7.38821305 C194.737367,6.61313933 200.722346,5.7293261 210.98937,6.39383174 C219.274713,6.92863018 228.437927,3.7937823 231.482056,2.47866821 C229.023819,2.41937256 226.259523,2.34452378 223.876221,2.3826677 C211.652232,2.57830839 199.475401,2.70759076 191.596724,2.62720263 C186.404575,2.57398342 173.450524,2.42650033 156.620502,2.22537253 Z" id="Fill-22" fill="#B28562"></path>
                    <path d="M11,16.9860382 C11,16.9860382 23.1003945,18.9460146 31.3305562,18.1569649 C39.5569554,17.3679153 48.3998771,19.8242854 57.7812183,19.5520595 C67.1642461,19.2793266 73.8014648,19.961539 80.1941245,20.2169092 C87.582276,20.5133415 105.201433,18.7404511 100.08139,21.5007308 C94.9574537,24.258856 86.3664862,23.649516 70.4582049,23.6994495 C54.5495345,23.7474819 43.6380444,21.6785394 33.0941066,22.5397011 C25.193644,23.1865908 15.4057387,22.8241563 11,22.6217804 C9.52599551,22.5540726 8.66372418,22.5397011 8.66372418,22.5397011 L11,16.9860382 Z" id="Fill-24" fill="#B28562"></path>
                    <path d="M59,36.8927071 C59,36.8927071 74.5818753,36.8510275 82.683055,35.2139826 C90.7880238,33.5788384 99.2289085,33.6859563 109.648705,33.1700523 C120.064321,32.6540126 131.851169,32.6164059 139.399022,30.9933447 C146.951709,29.3681113 162.04663,27.8438865 160.942589,30.2528867 C159.840638,32.6620226 114.9076,38 114.9076,38 L59,36.8927071 Z" id="Fill-26" fill="#B28562"></path>
                    <path d="M0.0265943012,7.44186308 L0.302966451,7.3512891 L3.6414638,6.28463172 C3.6414638,6.28463172 4.59820683,6.0893357 7.47547556,6.28463172 C10.3586107,6.47966328 9.34828531,6.31556491 11,6.15107727 C12.6541916,5.98513516 22.4714023,5.57696464 26.5246867,6.19762781 C30.5756246,6.81776207 34.4246282,7.6777521 38.5882007,7.73950108 C42.7533376,7.79979558 49,8.09954918 49,8.09954918 C49,8.09954918 41.2847846,8.76040868 38.5882007,8.76040868 C35.8957884,8.76040868 30.9358209,7.49845529 27.2599409,7.3801141 C23.5862772,7.26071512 16.6321069,8.62502536 11,8.43249512 C5.36789306,8.23996488 7.66033203,7.25873174 6.13220262,7.3801141 C4.60003193,7.50017421 3.74067098,7.62010209 3.74067098,7.62010209 L0,9 L0.0265943012,7.44186308 Z" id="Fill-28" fill="#603D26"></path>
                    <path d="M0,5.53152817 L3.59935616,4.0933792 C3.59935616,4.0933792 6.74646953,5.4385478 11,5.19315506 C15.2535305,4.94776231 18.1937611,4.0976069 21.6255993,4.0933792 C25.0535265,4.09119245 28.9142629,3.62045925 32.5840158,4.81354706 C36.2558544,6.00721799 49,7 49,7 C49,7 38.7786628,6.73350874 36.1494772,6.46920422 C33.5140341,6.20271295 27.1991912,4.87098554 23.8282332,4.78584829 C20.4614468,4.69852429 13.3126831,6.13098145 11,6.13098145 C8.68731689,6.13098145 3.67196903,5.49974748 3.67196903,5.49974748 L0,6.73584126 L0,5.53152817 Z" id="Fill-30" fill="#B78869"></path>
                    <path d="M90,19.729052 C90,19.729052 100.711591,19.6924748 104.490705,19.729052 C108.266432,19.7675691 113.007094,20.0470251 114.355242,19.7128417 C115.70313,19.3787967 116.750778,19.5409006 121.258282,19.7128417 C125.763311,19.8831201 126.224157,19.5306479 131.242655,19.518594 C136.261674,19.5043233 144.459457,19 148.497259,19 C152.535712,19 166,21.1325673 166,21.1325673 C166,21.1325673 147.134261,20.0003337 143.53438,20.0653138 C139.929679,20.1322336 128.942987,22.394207 123.015564,21.8918233 C117.087098,21.3898553 109.763202,22.1694783 104.332835,21.9649779 C98.9067659,21.7583993 90,19.729052 90,19.729052" id="Fill-32" fill="#603D26"></path>
                    <path d="M265.904201,6.03613468 C265.904201,6.03613468 258.022187,5.95483165 254.376528,6.03613468 C250.733067,6.11900588 246.26814,6.85772962 243.44692,7.18571621 C240.621305,7.51358217 229.599129,7.84156875 226.407642,7.92431932 C223.221844,8.00574299 210.46598,6.57558154 207.09828,6.96183129 C203.725667,7.34964919 203,7.51358217 203,7.51358217 C203,7.51358217 212.56373,7.11140957 216.936479,7.92793815 C221.308969,8.7443461 223.907692,8.90827908 231.358416,8.99115028 C238.801772,9.07221206 245.816295,8.58041312 250.280317,8.16955534 C254.743434,7.7606276 266,8.49392309 266,8.49392309 L265.904201,6.03613468 Z" id="Fill-34" fill="#603D26"></path>
                    <path d="M91,19.7006468 C91,19.7006468 100.012981,18.914918 106.977316,18.9789668 C113.93944,19.0430156 115.650589,19.1556152 120.537935,18.9751266 C125.42177,18.7947752 132.69318,18.6702436 138.523595,18.4217289 C144.35206,18.1733514 151.684964,17.6118618 154.371684,18.4217289 C157.059185,19.231596 165,21 165,21 C165,21 154.309541,19.6463357 149.239146,19.5004087 C144.169011,19.3539332 138.246421,19.6121855 132.082148,19.7006468 C125.911506,19.7910283 115.346243,20.1638003 110.764674,20.1638003 C106.183364,20.1638003 91,19.7006468 91,19.7006468" id="Fill-36" fill="#B78869"></path>
                    <path d="M203,7.29605372 C203,7.29605372 206.252905,5.39268406 214.930548,6.49573181 C223.605607,7.60066351 234.785972,7.08446354 237.8808,6.97790309 C240.97718,6.86922322 249.057288,5 254.579483,5 C260.105944,5 265.923224,5.21524032 265.923224,5.21524032 L266,6.14826235 C266,6.14826235 249.966322,5.96234087 246.142121,6.92256231 C242.317272,7.88478544 231.021485,8.04303653 226.284241,7.99134588 C221.549841,7.93800679 212.755741,6.58875143 208.674843,6.65586684 C204.594721,6.7248662 203,7.29605372 203,7.29605372" id="Fill-38" fill="#B78869"></path>
                </g>
            </g>
        </g>
    </g>
</svg>