<?xml version="1.0" encoding="UTF-8"?>
<svg width="14px" height="14px" viewBox="0 0 14 14" version="1.1" xmlns="http://www.w3.org/2000/svg" xmlns:xlink="http://www.w3.org/1999/xlink">
    <title>Fill 1 Copy 3</title>
    <g id="Symbols" stroke="none" stroke-width="1" fill="none" fill-rule="evenodd">
        <g id="Sidebar/2" transform="translate(-254.000000, -273.000000)" fill="#0D7AE7">
            <path d="M254.777778,280.777778 L260.222222,280.777778 L260.222222,286.222222 C260.222222,286.449075 260.295138,286.635416 260.440973,286.78125 C260.586808,286.927084 260.773149,287 261,287 C261.226851,287 261.413192,286.927084 261.559027,286.78125 C261.704862,286.635416 261.777778,286.449075 261.777778,286.222222 L261.777778,280.777778 L267.222222,280.777778 C267.449073,280.777778 267.635414,280.704862 267.781249,280.559027 C267.927085,280.413192 268,280.226851 268,280 C268,279.773149 267.927085,279.586808 267.781249,279.440973 C267.635414,279.295138 267.449073,279.222222 267.222222,279.222222 L261.777778,279.222222 L261.777778,273.777778 C261.777778,273.550927 261.704862,273.364586 261.559027,273.218751 C261.413192,273.072915 261.226851,273 261,273 C260.773149,273 260.586808,273.072915 260.440973,273.218751 C260.295138,273.364586 260.222222,273.550927 260.222222,273.777778 L260.222222,279.222222 L254.777778,279.222222 C254.550925,279.222222 254.364584,279.295138 254.21875,279.440973 C254.072916,279.586808 254,279.773149 254,280 C254,280.226851 254.072916,280.413192 254.21875,280.559027 C254.364584,280.704862 254.550925,280.777778 254.777778,280.777778 Z" id="Fill-1-Copy-3"></path>
        </g>
    </g>
</svg>