<?xml version="1.0" encoding="UTF-8"?>
<svg width="13px" height="14px" viewBox="0 0 13 14" version="1.1" xmlns="http://www.w3.org/2000/svg" xmlns:xlink="http://www.w3.org/1999/xlink">
    <title>Fill 1 Copy 4</title>
    <g id="Symbols" stroke="none" stroke-width="1" fill="none" fill-rule="evenodd">
        <g id="Sidebar/1" transform="translate(-246.000000, -480.000000)" fill="#232425">
            <path d="M248.047571,483.423283 C247.855611,483.423283 247.69298,483.423283 247.559673,483.423283 C247.426367,483.423283 247.359715,483.423283 247.359715,483.423283 L247.359715,492.285428 C247.359715,492.66935 247.493019,492.994612 247.759632,493.261224 C248.026244,493.527836 248.351506,493.66114 248.735427,493.66114 L255.550001,493.66114 C255.933923,493.66114 256.259184,493.527836 256.525798,493.261224 C256.792408,492.994612 256.925713,492.66935 256.925713,492.285428 L256.925713,483.423283 C256.925713,483.423283 256.859062,483.423283 256.725754,483.423283 C256.592449,483.423283 256.429816,483.423283 256.237857,483.423283 L248.047571,483.423283 Z M255.294053,481.375712 L254.190286,480 L250.095143,480 L248.991375,481.375712 L246,481.375712 L246,482.735427 L258.285428,482.735427 L258.285428,481.375712 L255.294053,481.375712 Z" id="Fill-1-Copy-4"></path>
        </g>
    </g>
</svg>