<?xml version="1.0" encoding="UTF-8"?>
<svg width="50px" height="53px" viewBox="0 0 50 53" version="1.1" xmlns="http://www.w3.org/2000/svg" xmlns:xlink="http://www.w3.org/1999/xlink">
    <title>Head2</title>
    <defs>
        <polygon id="path-1" points="0 0 49.9999974 0 49.9999974 44.4951319 0 44.4951319"></polygon>
        <polygon id="path-3" points="0 0 49.9999974 0 49.9999974 47.9947032 0 47.9947032"></polygon>
        <polygon id="path-5" points="0 0 49.9999922 0 49.9999922 32.2611921 0 32.2611921"></polygon>
        <polygon id="path-7" points="0 0 49.9999948 0 49.9999948 27.999227 0 27.999227"></polygon>
        <polygon id="path-9" points="0 0 29.2500682 0 29.2500682 19.1187388 0 19.1187388"></polygon>
        <polygon id="path-11" points="0 -2.96085998e-15 29.2500682 -2.96085998e-15 29.2500682 11.843712 0 11.843712"></polygon>
    </defs>
    <g id="Symbols" stroke="none" stroke-width="1" fill="none" fill-rule="evenodd">
        <g id="Group-55" transform="translate(0.000000, 2.000000)">
            <path d="M2.32412227,11.6741213 C0.168668756,9.2680985 1.45308069,6.42534383 4.07498224,4.07680011 C6.69685774,1.72877727 9.66324327,0.764237734 11.8185926,3.17026057 C13.9732127,5.57625735 14.5010204,10.4419016 11.8791189,12.7903411 C9.25721731,15.1387807 4.47915907,14.0805348 2.32412227,11.6741213" id="Fill-1" fill="#C48770"></path>
            <path d="M11.8185848,3.17025015 C9.66323546,0.764227316 6.69687597,1.72876685 4.07497442,4.07678969 C1.45307288,6.42533342 0.168686987,9.26811412 2.32411445,11.6741109 C4.35890611,13.9458509 8.7298185,15.0128475 11.4183666,13.1482534 C9.01346371,14.7644138 5.15072184,13.8081042 3.34623727,11.7936529 C1.4215336,9.64512706 2.56827695,7.10614961 4.90981484,5.00908675 C7.25132668,2.91204993 9.90039212,2.05067069 11.8252,4.19919649 C13.7494088,6.34811296 14.2203364,10.6932939 11.879111,12.7903567 C14.5010126,10.4419172 13.9732049,5.57627298 11.8185848,3.17025015" id="Fill-3" fill="#BC826C"></path>
            <path d="M5.17207271,12.0069949 C3.65959346,10.3180936 4.56063772,8.32236794 6.40093279,6.67448594 C8.24159248,5.02577054 10.3238103,4.3488349 11.8366802,6.03773619 C13.3491854,7.72632496 13.7193749,11.1417351 11.8791058,12.7903463 C10.0388368,14.4384367 6.68496865,13.6958962 5.17207271,12.0069949" id="Fill-5" fill="#FCF4BB"></path>
            <path d="M47.7750715,11.6741213 C49.9301083,9.2680985 48.6461131,6.42534383 46.0242115,4.07680011 C43.4024142,1.72877727 40.435638,0.764237734 38.2807054,3.17026057 C36.1255644,5.57625735 35.5982776,10.4419016 38.2201791,12.7903411 C40.8416639,15.1387807 45.6200347,14.0805348 47.7750715,11.6741213" id="Fill-7" fill="#C48770"></path>
            <path d="M38.2807132,3.17025015 C40.4356458,0.764227316 43.402422,1.72876685 46.0242194,4.07678969 C48.6461209,6.42533342 49.9301161,9.26811412 47.7750793,11.6741109 C45.7402877,13.9458509 41.3693753,15.0128475 38.6805407,13.1482534 C41.0854175,14.7644138 44.948498,13.8081042 46.752644,11.7936529 C48.6773477,9.64512706 47.5307085,7.10614961 45.189405,5.00908675 C42.8478671,2.91204993 40.1988017,2.05067069 38.274098,4.19919649 C36.349785,6.34811296 35.8785709,10.6932939 38.2201869,12.7903567 C35.5982854,10.4419172 36.1255722,5.57627298 38.2807132,3.17025015" id="Fill-9" fill="#BC826C"></path>
            <path d="M44.9268164,12.0069949 C46.4397123,10.3180936 45.5381472,8.32236794 43.6978521,6.67448594 C41.8576873,5.02577054 39.7753913,4.3488349 38.2624954,6.03773619 C36.7500161,7.72632496 36.3795142,11.1417351 38.2197832,12.7903463 C40.0600523,14.4384367 43.4143371,13.6958962 44.9268164,12.0069949" id="Fill-11" fill="#FCF4BB"></path>
            <g id="Group-15" transform="translate(0.000003, 3.499571)">
                <mask id="mask-2" fill="white">
                    <use xlink:href="#path-1"></use>
                </mask>
                <g id="Clip-14"></g>
                <path d="M50,27.4119088 C50,39.6988689 38.8072786,44.4951319 25.0002084,44.4951319 C11.1931121,44.4951319 0,39.6988689 0,27.4119088 C0,15.1249487 11.1931121,0 25.0002084,0 C38.8072786,0 50,15.1249487 50,27.4119088" id="Fill-13" fill="#CF8F77" mask="url(#mask-2)"></path>
            </g>
            <g id="Group-18" transform="translate(0.000003, 0.000000)">
                <mask id="mask-4" fill="white">
                    <use xlink:href="#path-3"></use>
                </mask>
                <g id="Clip-17"></g>
                <path d="M50,30.9114801 C50,43.1984402 38.8072786,47.9947032 25.0002084,47.9947032 C11.1931121,47.9947032 0,43.1984402 0,30.9114801 C0,23.8436855 3.39720537,16.8354014 8.11372165,11.702702 C9.91492467,9.74218784 11.9725048,8.00588646 14.2561469,6.63175295 C15.3614803,5.96671941 16.51911,5.38724042 17.7197905,4.91498457 C18.1901972,4.72952525 18.9142465,4.66147228 19.3202724,4.39696942 C19.8683163,4.0391509 19.7780739,2.34702015 21.8056513,1.34299791 C21.4162935,1.99164977 21.3699092,2.43215798 21.4409312,2.86352475 C22.2225376,1.41756189 23.7162131,0.607046569 25.1511854,-1.30219999e-05 C24.7014055,0.517924002 24.5883746,1.3437011 24.3753607,1.95146388 C25.2279892,0.601238757 26.82308,1.02651123 28.1121538,0.541129205 C27.7658467,1.53314516 27.3471113,2.38027834 28.370354,3.14633655 C28.9636624,3.58999608 29.805717,3.80160358 30.4555148,4.16520386 C31.1798505,4.57010993 32.0006532,4.78994733 32.7746288,5.11633073 C34.4272247,5.81350256 35.9922868,6.71069231 37.4498393,7.75409308 C40.4273977,9.88563819 42.9637447,12.6187216 44.9862175,15.6647497 C47.9551293,20.135671 50,25.4939114 50,30.9114801" id="Fill-16" fill="#CF8F77" mask="url(#mask-4)"></path>
            </g>
            <g id="Group-21" transform="translate(0.000000, 15.733524)">
                <mask id="mask-6" fill="white">
                    <use xlink:href="#path-5"></use>
                </mask>
                <g id="Clip-20"></g>
                <path d="M45.0315002,0 C46.6127617,3.68564267 47.5052635,7.59375319 47.5052635,11.2497838 C47.5052635,23.5365616 37.4294911,28.3328246 25.0002005,28.3328246 C12.57091,28.3328246 2.49472088,23.5365616 2.49472088,11.2497838 C2.49472088,7.59375319 3.38714458,3.68564267 4.9685102,0 C1.84781397,4.72443365 -7.81319993e-06,10.1855479 -7.81319993e-06,15.1779482 C-7.81319993e-06,27.4649344 11.1931303,32.2611974 25.0002005,32.2611974 C38.8072968,32.2611974 49.9999922,27.4649344 49.9999922,15.1779482 C49.9999922,10.1855479 48.1521964,4.72443365 45.0315002,0" id="Fill-19" fill="#BC826C" mask="url(#mask-6)"></path>
            </g>
            <g id="Group-24" transform="translate(0.000005, 19.995484)">
                <mask id="mask-8" fill="white">
                    <use xlink:href="#path-7"></use>
                </mask>
                <g id="Clip-23"></g>
                <path d="M47.4075021,0 C48.5660434,3.0604825 49.2064654,6.21037405 49.2064654,9.19353192 C49.2064654,21.480492 38.3690101,26.2765727 25.0002084,26.2765727 C11.6313805,26.2765727 0.793534629,21.480492 0.793534629,9.19353192 C0.793534629,6.21037405 1.43385241,3.06087316 2.59249787,0.000312527997 C0.934015964,3.58745679 0,7.3695404 0,10.9160039 C0,23.202964 11.1931121,27.999227 25.0002084,27.999227 C38.8072786,27.999227 50,23.202964 50,10.9160039 C50,7.3695404 49.0660882,3.58745679 47.4075021,0" id="Fill-22" fill="#BC826C" mask="url(#mask-8)"></path>
            </g>
            <g id="Group-27" transform="translate(10.374961, 28.875977)">
                <mask id="mask-10" fill="white">
                    <use xlink:href="#path-9"></use>
                </mask>
                <g id="Clip-26"></g>
                <path d="M29.2500682,11.7785031 C29.2500682,17.0578041 22.7020337,19.118744 14.6252425,19.118744 C6.54793034,19.118744 0,17.0578041 0,11.7785031 C0,6.49878531 6.54793034,0 14.6252425,0 C22.7020337,0 29.2500682,6.49878531 29.2500682,11.7785031" id="Fill-25" fill="#FCF4BB" mask="url(#mask-10)"></path>
            </g>
            <g id="Group-30" transform="translate(10.374968, 36.151004)">
                <mask id="mask-12" fill="white">
                    <use xlink:href="#path-11"></use>
                </mask>
                <g id="Clip-29"></g>
                <path d="M27.8477551,-2.96085998e-15 C27.9252881,0.44407624 27.969016,0.8843761 27.969016,1.31613353 C27.969016,6.59543459 21.9947829,8.65637443 14.6252425,8.65637443 C7.25528537,8.65637443 1.28105226,6.59543459 1.28105226,1.31613353 C1.28105226,0.8843761 1.32478014,0.44407624 1.40231312,-2.96085998e-15 C0.50410766,1.48531535 0,3.0409495 0,4.50347635 C0,9.78277742 6.54793034,11.8437172 14.6252425,11.8437172 C22.7020337,11.8437172 29.2500682,9.78277742 29.2500682,4.50347635 C29.2500682,3.0409495 28.7459606,1.48531535 27.8477551,-2.96085998e-15" id="Fill-28" fill="#F9DDB2" mask="url(#mask-12)"></path>
            </g>
            <path d="M38.5185678,36.6704595 C38.7648659,37.4620669 38.899253,38.251721 38.899253,39.0159561 C38.899253,44.2952572 32.6763778,46.3560928 25.0001953,46.3560928 C17.3239347,46.3560928 11.100747,44.2952572 11.100747,39.0159561 C11.100747,38.2521116 11.2351341,37.4620669 11.4814322,36.6704595 C10.7697018,37.996047 10.3749789,39.3614298 10.3749789,40.6544883 C10.3749789,45.9337894 16.9229092,47.9947032 25.0001953,47.9947032 C33.0770126,47.9947032 39.6250211,45.9337894 39.6250211,40.6544883 C39.6250211,39.3614298 39.2302982,37.996047 38.5185678,36.6704595" id="Fill-31" fill="#F9DDB2"></path>
            <path d="M16.6382509,26.4029173 C16.6382509,27.7163163 15.8158335,28.7811512 14.8005082,28.7811512 C13.7857298,28.7811512 12.9627915,27.7163163 12.9627915,26.4029173 C12.9627915,25.089232 13.7857298,24.0241626 14.8005082,24.0241626 C15.8158335,24.0241626 16.6382509,25.089232 16.6382509,26.4029173" id="Fill-33" fill="#7C5335"></path>
            <path d="M14.8005212,25.728521 C14.8005212,26.2175492 14.4945042,26.6138086 14.1166578,26.6138086 C13.7389157,26.6138086 13.4328987,26.2175492 13.4328987,25.728521 C13.4328987,25.239597 13.7389157,24.8433375 14.1166578,24.8433375 C14.4945042,24.8433375 14.8005212,25.239597 14.8005212,25.728521" id="Fill-35" fill="#FEFEFE"></path>
            <path d="M37.3150485,26.4029173 C37.3150485,27.7163163 36.4924228,28.7811512 35.4773058,28.7811512 C34.462319,28.7811512 33.6394849,27.7163163 33.6394849,26.4029173 C33.6394849,25.089232 34.462319,24.0241626 35.4773058,24.0241626 C36.4924228,24.0241626 37.3150485,25.089232 37.3150485,26.4029173" id="Fill-37" fill="#7C5335"></path>
            <path d="M35.4773188,25.728521 C35.4773188,26.2175492 35.1711976,26.6138086 34.7934555,26.6138086 C34.4156091,26.6138086 34.1095921,26.2175492 34.1095921,25.728521 C34.1095921,25.239597 34.4156091,24.8433375 34.7934555,24.8433375 C35.1711976,24.8433375 35.4773188,25.239597 35.4773188,25.728521" id="Fill-39" fill="#FEFEFE"></path>
            <path d="M14.6607378,30.6675207 C14.6607378,31.2132207 13.3405414,31.6554738 11.7120622,31.6554738 C10.0837132,31.6554738 8.7639075,31.2132207 8.7639075,30.6675207 C8.7639075,30.121925 10.0837132,29.6800885 11.7120622,29.6800885 C13.3405414,29.6800885 14.6607378,30.121925 14.6607378,30.6675207" id="Fill-41" fill="#F19EBD"></path>
            <path d="M41.3740476,30.6675207 C41.3740476,31.2132207 40.054346,31.6554738 38.4254761,31.6554738 C36.7975178,31.6554738 35.4773214,31.2132207 35.4773214,30.6675207 C35.4773214,30.121925 36.7975178,29.6800885 38.4254761,29.6800885 C40.054346,29.6800885 41.3740476,30.121925 41.3740476,30.6675207" id="Fill-43" fill="#F19EBD"></path>
            <path d="M24.8861617,33.6230069 C25.0313309,35.4229858 25.0375294,36.4759447 23.8005436,37.0152378 C22.896947,37.4093617 20.5847347,37.3556329 20.6372133,35.8554725" id="Stroke-45" stroke="#795133" stroke-linecap="round" stroke-linejoin="round"></path>
            <path d="M25.1138435,33.6230069 C24.9683617,35.4229858 24.9625539,36.4759447 26.1994356,37.0152378 C27.1027457,37.4093617 29.4148538,37.3556329 29.3627658,35.8554725" id="Stroke-47" stroke="#795133" stroke-linecap="round" stroke-linejoin="round"></path>
            <path d="M20.8215684,31.1253274 C20.8215684,29.5077606 22.6922568,28.8759852 24.9998073,28.8759852 C27.3072275,28.8759852 29.1780201,29.5077606 29.1780201,31.1253274 C29.1780201,32.7435192 27.3072275,34.7355727 24.9998073,34.7355727 C22.6922568,34.7355727 20.8215684,32.7435192 20.8215684,31.1253274" id="Fill-49" fill="#7C5335"></path>
            <path d="M28.7806538,30.0111312 C28.7995878,30.1212192 28.8118805,30.235344 28.8118805,30.3567351 C28.8118805,31.9749009 27.1052954,33.966147 24.9997943,33.966147 C22.8947098,33.966147 21.187708,31.9749009 21.187708,30.3567351 C21.187708,30.235344 21.2004174,30.1212192 21.2189347,30.0111312 C20.9668548,30.3139969 20.8215554,30.6811652 20.8215554,31.1253196 C20.8215554,32.7435114 22.6922698,34.7355649 24.9997943,34.7355649 C27.3072405,34.7355649 29.1780331,32.7435114 29.1780331,31.1253196 C29.1780331,30.6811652 29.0331504,30.3139969 28.7806538,30.0111312" id="Fill-51" fill="#795133"></path>
            <path d="M26.9468932,29.7800923 C26.9468932,30.0524344 26.0752265,30.2736 24.9997916,30.2736 C23.9244609,30.2736 23.0527162,30.0524344 23.0527162,29.7800923 C23.0527162,29.5069428 23.9244609,29.2859595 24.9997916,29.2859595 C26.0752265,29.2859595 26.9468932,29.5069428 26.9468932,29.7800923" id="Fill-53" fill="#FFF7DB"></path>
        </g>
    </g>
</svg>