<?xml version="1.0" encoding="UTF-8"?>
<svg width="50px" height="53px" viewBox="0 0 50 53" version="1.1" xmlns="http://www.w3.org/2000/svg" xmlns:xlink="http://www.w3.org/1999/xlink">
    <title>Head3</title>
    <defs>
        <polygon id="path-1" points="0 0 4.47008581 0 4.47008581 6.6911686 0 6.6911686"></polygon>
        <polygon id="path-3" points="-9.85874494e-16 0 50 0 50 26.2218572 -9.85874494e-16 26.2218572"></polygon>
    </defs>
    <g id="Symbols" stroke="none" stroke-width="1" fill="none" fill-rule="evenodd">
        <g id="Group-77" transform="translate(0.000000, 2.000000)">
            <path d="M35.9903549,8.10082507 C35.9903549,8.10082507 51.4883881,11.7144875 46.782071,4.32790023 C43.4586178,-0.888097585 34.3455972,7.04711705 34.3455972,7.04711705 C34.3455972,7.04711705 35.6378922,7.86663366 35.9903549,8.10082507" id="Fill-1" fill="#F7F6F4"></path>
            <path d="M34.8612886,7.99437071 C34.3488479,8.01818852 34.1732299,7.32348541 34.6358883,7.10196957 C37.1647671,5.89114579 40.8509051,4.43805503 42.5342006,4.43539115 C43.5801398,4.4337617 44.3173674,4.76056656 44.8540347,5.46395857 C45.446311,6.2401329 45.4110443,7.06169396 45.1456751,7.28239202 C43.1840281,8.91386078 40.1275798,7.74944595 34.8612886,7.99437071" id="Fill-3" fill="#EEBFAF"></path>
            <path d="M13.0171178,8.21943367 C13.0171178,8.21943367 -2.8165114,10.3296097 2.74448685,3.00415141 C6.67135856,-2.16881079 14.7776934,7.28317913 14.7776934,7.28317913 C14.7776934,7.28317913 13.3954428,8.00987784 13.0171178,8.21943367" id="Fill-5" fill="#F7F6F4"></path>
            <path d="M9.71044958,7.67792097 C5.97013366,7.68384987 4.2952204,6.99793788 3.97495777,6.35393705 C3.75865527,5.91908316 4.0789179,5.08443764 4.8535589,4.06405411 C5.41373739,3.32600872 6.06458712,2.98172383 6.90189042,2.98039304 C8.478568,2.97783938 12.1600038,5.55087824 14.3385666,7.21321815 C14.8302562,7.58837419 14.4815757,8.37057964 13.8736594,8.25609061 C12.4834354,7.99419694 10.7658954,7.67618319 9.71044958,7.67792097" id="Fill-7" fill="#EEBFAF"></path>
            <path d="M34.6358678,7.10195935 C36.0931497,6.39325177 37.5799738,5.74097093 39.1093225,5.20287246 C40.5035331,4.71230739 42.2166776,4.05235987 43.692155,4.55386274 C44.3334981,4.77190302 44.870881,5.25275697 45.1675302,5.8620022 C45.411535,6.36309617 45.5448329,7.04890594 45.049259,7.42804865 C43.8437508,8.3501965 42.1550375,8.26167195 40.7228001,8.18122295 C38.7699442,8.07164059 36.818724,7.91544483 34.8612681,7.99436049 C36.5256525,7.90276926 38.1853346,7.96052489 39.8483901,8.04741389 C41.3445164,8.12571622 43.0978342,8.35387651 44.4837649,7.64864449 C45.0595834,7.35567523 45.3833216,7.06291041 45.223957,6.36565173 C45.0696012,5.69047309 44.5683028,5.0846012 43.9506753,4.77905858 C42.5978647,4.10970661 40.9051648,4.70044959 39.569323,5.13182793 C37.885312,5.67575307 36.2404521,6.35778061 34.6358678,7.10195935" id="Fill-9" fill="#000000"></path>
            <path d="M13.8737105,8.25608038 C12.1708905,7.95452444 10.5208173,7.74885306 8.7927484,7.70336412 C7.9216095,7.68046631 7.04811949,7.61790623 6.1911895,7.45383935 C5.52889087,7.32708363 4.75639655,7.15913231 4.22044475,6.71804285 C3.17491452,5.8576373 4.68340979,3.93555039 5.46173079,3.37608745 C6.80707918,2.40906398 8.40869902,3.27325176 9.65059839,3.98533267 C11.2989338,4.93048056 12.8371758,6.05237089 14.3385155,7.21320793 C13.071265,6.26673116 11.7719167,5.35388554 10.419106,4.53324449 C9.21911784,3.80531911 7.531529,2.6400865 6.06995379,3.17450497 C5.44956633,3.40123415 5.02350356,3.90191923 4.66051198,4.43112436 C4.32440488,4.9210761 3.68500406,5.83698839 4.09430236,6.43284249 C4.49399177,7.01479434 5.47839303,7.20462125 6.11963386,7.33577253 C6.90746153,7.49697719 7.7139959,7.57231506 8.51644138,7.611364 C9.38942028,7.65399072 10.2531992,7.64346182 11.1212714,7.7640842 C12.0446459,7.89237325 12.9594338,8.07606682 13.8737105,8.25608038" id="Fill-11" fill="#000000"></path>
            <path d="M36.0373874,7.9911916 C36.5313258,8.10343174 45.532004,10.1048432 47.2692729,7.65212005 C47.7903003,6.916528 47.5931134,5.81927325 46.6830277,4.39102253 C46.073987,3.4351413 45.217977,2.87138502 44.1387134,2.71529149 C40.5230065,2.19119748 35.3922621,6.32455835 34.5432033,7.03357259 C34.8771637,7.2457862 35.7375692,7.79308468 36.0373874,7.9911916 M43.0493297,9.10635758 C39.8655123,9.11134415 36.2074854,8.2719964 35.9636851,8.21516078 L35.9430362,8.21035632 L35.9253517,8.19860075 C35.5780001,7.96778268 34.2956207,7.15450163 34.2826385,7.14632385 L34.1497494,7.0619904 L34.2685318,6.95864361 C34.5059943,6.75174556 40.1327215,1.89904599 44.1720378,2.48294008 C45.3221415,2.64925585 46.2335561,3.24868773 46.8809302,4.26488015 C47.8472381,5.78145098 48.0423806,6.96682139 47.4607354,7.78787134 C46.7535612,8.78627706 44.9892033,9.10316636 43.0493297,9.10635758" id="Fill-13" fill="#4D4D4D"></path>
            <path d="M5.72542357,1.57383058 C5.68749908,1.57393802 5.64998347,1.57444913 5.61226343,1.57557358 C4.50151533,1.60869362 3.56812302,2.11326316 2.83794875,3.07517551 C1.72433843,4.5421685 1.41143581,5.71874779 1.908032,6.5721 C3.47694068,9.26841902 12.4720989,8.17044872 12.9799396,8.10594641 C13.30562,7.92644396 14.2428967,7.43219888 14.5909638,7.24881198 C13.8742829,6.44605984 9.36750381,1.56800913 5.72542357,1.57383058 M8.53122273,8.62486631 C5.77980586,8.62922264 2.62195292,8.2659244 1.70512063,6.69016682 C1.15628881,5.74696116 1.47460922,4.48298176 2.65098407,2.93318866 C3.4262384,1.91198734 4.42024856,1.37634221 5.60541453,1.34097328 C9.68214421,1.22300868 14.6571017,6.96238494 14.866862,7.20679859 L14.9626443,7.31852762 L14.8323108,7.38711882 C14.8185108,7.39437661 13.446789,8.11555531 13.0739841,8.32204447 L13.0545619,8.33288004 L13.0325841,8.33574226 C12.8535927,8.35966229 10.8347012,8.62114707 8.53122273,8.62486631" id="Fill-15" fill="#4D4D4D"></path>
            <path d="M19.9670623,5.32191039 C19.2066302,4.12590886 19.3316482,2.08544846 19.5362973,0.707491131 C19.6073418,0.229397184 18.9921677,-0.0771676547 18.6379673,0.260370557 C17.3153122,1.52066995 15.4132609,3.85512184 15.8936037,6.52711194 C15.8936037,6.52711194 18.5553716,5.4289372 19.9670623,5.32191039" id="Fill-17" fill="#968782"></path>
            <path d="M29.0795513,5.42476652 C29.8362012,4.22631165 29.7047433,2.18626014 29.4955963,0.809018373 C29.4230185,0.33112887 30.0372726,0.0226218068 30.3924953,0.359035572 C31.7192392,1.61514385 33.6286505,3.9434624 33.1568944,6.61708806 C33.1568944,6.61708806 30.4916509,5.52729554 29.0795513,5.42476652" id="Fill-19" fill="#968782"></path>
            <path d="M19.9673179,5.3215015 C19.4580461,5.35983489 18.7857297,5.52880844 18.1346755,5.72814202 C17.3215989,2.95607624 18.9399832,0.0979392369 19.096179,0.127583719 C19.3567437,0.177059339 19.5805085,0.408695192 19.5362462,0.707388909 C19.3319037,2.08555068 19.2071924,4.12560219 19.9673179,5.3215015" id="Fill-21" fill="#786C68"></path>
            <path d="M30.7293179,5.77030875 C30.136326,5.59755297 29.5410853,5.45761057 29.0797558,5.4243883 C29.8359968,4.22603565 29.7048455,2.18639303 29.4961074,0.808844595 C29.4546052,0.540204249 29.6314498,0.325128418 29.8567479,0.249586098 C29.8779079,0.295381713 29.8979435,0.342301773 29.9179791,0.389221833 C30.6330245,2.079264 31.0022516,3.97303533 30.7293179,5.77030875" id="Fill-23" fill="#786C68"></path>
            <g id="Group-27" transform="translate(15.701043, 0.000000)">
                <mask id="mask-2" fill="white">
                    <use xlink:href="#path-1"></use>
                </mask>
                <g id="Clip-26"></g>
                <path d="M3.29084874,0.235622156 C3.19915529,0.235724747 3.10163516,0.265471452 3.01781283,0.34530711 C1.82262907,1.48426857 -0.0991511729,3.76382706 0.284591542,6.36323929 C0.82565446,6.1465279 2.80733701,5.37812246 4.07203196,5.22346004 C3.40871111,4.0045607 3.50950235,2.10179381 3.71926262,0.690307553 C3.74870266,0.491791743 3.6254225,0.351644896 3.50020012,0.286631479 C3.44244449,0.25668033 3.36874217,0.235520303 3.29084874,0.235622156 L3.29084874,0.235622156 Z M0.102737975,6.6911686 L0.0770801646,6.54785286 C-0.420333808,3.78110263 1.60458879,1.36773509 2.85599485,0.175413559 C3.05716844,-0.0162533542 3.35259104,-0.0543822921 3.60824915,0.0783023228 C3.85593391,0.206795821 3.99066297,0.460613925 3.95140959,0.724756487 C3.73807153,2.16087833 3.63656474,4.11322306 4.36510345,5.2589312 L4.47008581,5.42412252 L4.27494333,5.43894476 C2.89811046,5.54331379 0.263738182,6.62472407 0.237364815,6.63566186 L0.102737975,6.6911686 Z" id="Fill-25" fill="#4D4D4D" mask="url(#mask-2)"></path>
            </g>
            <path d="M29.2733649,5.32564151 C30.5383666,5.47631726 32.5225024,6.2383849 33.0641787,6.45335851 C33.4397436,3.85282184 31.5108078,1.57929447 30.311944,0.44421746 C30.1563616,0.297119493 29.9547791,0.321448413 29.8294545,0.387075164 C29.7043344,0.452395248 29.5814631,0.593053206 29.6116187,0.791466794 C29.8258768,2.2022375 29.9328013,4.10459549 29.2733649,5.32564151 L29.2733649,5.32564151 Z M33.2472589,6.78067449 L33.1124276,6.72567886 C33.0859521,6.71484329 30.4482064,5.64181525 29.0710669,5.54173956 L28.8758222,5.52763288 L28.9803957,5.36213489 C29.7051522,4.21397341 29.597512,2.26193535 29.3794717,0.826631284 C29.3394006,0.562488723 29.4733119,0.308363952 29.7206899,0.179052674 C29.9759392,0.0456525031 30.2715662,0.0828614398 30.4732509,0.273812796 C31.728337,1.46214766 33.760824,3.86907519 33.2724056,6.63735875 L33.2472589,6.78067449 Z" id="Fill-28" fill="#4D4D4D"></path>
            <path d="M24.424652,4.8643788 C8.89595209,4.88495072 3.85455006,18.8595642 4.7478712,27.015068 C4.7478712,27.015068 22.7543388,17.9177897 44.3000509,26.9520991 C44.2214419,14.4527586 38.0026428,4.84641289 24.424652,4.8643788" id="Fill-30" fill="#F7F6F4"></path>
            <path d="M39.5752826,22.044271 C41.4639428,19.2608585 40.5092883,15.287169 38.2883032,12.7603346 C36.0683403,10.2335003 32.8796162,8.8160851 29.7954656,7.47237227 C28.0019744,6.69129126 25.6209091,6.08122826 24.0393249,4.92887566 C24.012236,4.90894231 23.9863737,4.89023562 23.9605114,4.87030226 C24.1142539,4.86652003 24.2679963,4.86508892 24.424192,4.86485895 C38.0021828,4.84679111 44.221493,14.4527279 44.2999998,26.9520684 C42.0086857,25.9909738 39.7575451,25.2351417 37.5642622,24.6529854 C38.074454,23.7250109 38.9640952,22.9454633 39.5752826,22.044271" id="Fill-32" fill="#E2E2E0"></path>
            <path d="M23.0334774,10.0981067 C21.8869514,10.9356145 20.2971894,10.5637296 18.9235254,10.204418 C17.5497592,9.84398198 15.8944726,9.60007944 14.8750091,10.5900007 C14.1472882,11.2964594 14.0128658,12.407003 14.0086747,13.4221732 C14.0031546,14.436219 14.0753236,15.5030115 13.6284075,16.4133015 C13.2177803,17.2484582 12.4135971,17.8365434 11.5468537,18.1782727 C10.6812348,18.5188776 9.74712696,18.6412377 8.82487689,18.7600201 C7.71831991,18.9026203 6.61063849,19.0464471 5.50408151,19.1901718 C7.43802622,12.3916697 12.7999975,5.47019414 23.0815219,4.90337119 C24.0173675,6.66824012 24.8774664,8.7502028 23.0334774,10.0981067" id="Fill-34" fill="#333333"></path>
            <path d="M24.4695276,22.8360138 C25.9976496,22.8335604 27.5230116,22.8993916 29.0408091,23.0337118 C34.2124424,23.4914635 39.3052623,24.7501273 44.1811663,26.7753566 C44.0320239,13.109148 36.6567833,4.96560416 24.4247543,4.98173131 C24.4226076,4.98173131 24.4202565,4.98173131 24.418212,4.98173131 C18.5395067,4.99115974 13.5707848,7.07547353 10.0485091,11.0099097 C5.54694334,16.0382273 4.4341508,22.6344313 4.84733355,26.8367923 C5.69557464,26.4359784 10.022238,24.498967 16.4258551,23.4798102 C19.0937563,23.0552807 21.7854753,22.8403071 24.4695276,22.8360138 L24.4695276,22.8360138 Z M4.64963552,27.196206 L4.6312355,27.0279481 C4.1666349,22.7866404 5.2609252,16.0058228 9.8737089,10.8533051 C13.4413713,6.8681666 18.4711199,4.75655944 24.4178031,4.74702756 C24.4203587,4.74702756 24.421892,4.74702756 24.4245498,4.74702756 C27.7338963,4.7426572 30.7181757,5.31316016 33.2944857,6.44281939 C35.7386221,7.51451854 37.8316248,9.09467168 39.515227,11.1396299 C42.6814622,14.985337 44.3766154,20.4529041 44.4174022,26.9513835 L44.4185266,27.129046 L44.2547664,27.0603525 C33.1541344,22.4058621 23.0194013,22.6695958 16.4719574,23.7102193 C9.37506826,24.8383452 4.845698,27.0971526 4.80072016,27.1199482 L4.64963552,27.196206 Z" id="Fill-36" fill="#4D4D4D"></path>
            <path d="M24.5109379,22.2030223 C42.3518053,22.9961655 49.9869973,26.9744551 49.8815038,34.4860603 C49.7564859,43.3995429 37.9029862,48.0197888 25.7258506,48.1389801 C11.4074633,48.2791269 0.131008829,42.4288394 0.117402556,33.8610728 C0.104022128,25.461462 12.6622427,21.6762705 24.5109379,22.2030223" id="Fill-38" fill="#EEBFAF"></path>
            <path d="M49.8804816,34.1271269 C50.0156196,40.4386417 44.126692,44.2708555 38.7802585,46.085609 C38.3277201,40.4612329 47.3825762,40.7571666 46.8677844,34.165767 C46.3800816,27.9214123 37.6396615,29.0766271 37.4664968,23.6943135 C42.9987706,24.9049329 49.7224459,27.6366208 49.8804816,34.1271269" id="Fill-40" fill="#EDB1A2"></path>
            <g id="Group-44" transform="translate(0.000000, 22.036873)">
                <mask id="mask-4" fill="white">
                    <use xlink:href="#path-3"></use>
                </mask>
                <g id="Clip-43"></g>
                <path d="M22.2383817,0.23465486 C18.6910616,0.240342017 15.2421816,0.631853631 12.1503643,1.38615238 C8.15377691,2.36104696 4.96382615,3.90859117 2.92551242,5.86144702 C1.13641679,7.57551144 0.231135624,9.58162513 0.234702843,11.8240769 C0.239006746,14.5281648 1.35435484,16.9997991 3.54957989,19.1702863 C7.95924777,23.5300697 16.2465162,26.0788819 25.7247773,25.9847351 C37.2129342,25.8722905 49.6359146,21.5881517 49.7642037,12.447531 C49.8171549,8.67041507 47.890468,5.87228259 43.8742539,3.89356449 C39.7471286,1.86025965 33.4116938,0.679387026 24.5056735,0.283479851 C23.7472858,0.249644252 22.9905337,0.23349312 22.2383817,0.23465486 M25.3069945,26.2218572 C15.9446536,26.2371221 7.77248753,23.6754299 3.38459301,19.3372154 C1.14306124,17.121137 0.00440644422,14.5933827 -9.85874494e-16,11.8244858 C-0.00366912171,9.51538504 0.925940961,7.45212906 2.76318332,5.69196235 C4.83124376,3.71058648 8.05809679,2.14280224 12.0947553,1.15809431 C15.8632846,0.23870646 20.1588723,-0.144627366 24.5161002,0.0488795492 C33.4552405,0.44632006 39.8212398,1.63506381 43.9780096,3.68298644 C48.0838726,5.70586459 50.0532885,8.57381494 49.9989062,12.4509044 C49.8683683,21.7489474 37.3255833,26.1059708 25.7270262,26.2194376 C25.5872882,26.2207665 25.4463236,26.2215843 25.3069945,26.2218572" id="Fill-42" fill="#4D4D4D" mask="url(#mask-4)"></path>
            </g>
            <path d="M16.9250682,12.2976762 C17.9252117,10.8754566 19.9553476,10.568994 21.3837006,11.4690618 C20.692473,11.3449639 20.0508233,11.2060437 19.3450802,11.304075 C18.4661724,11.4261285 17.6539136,11.80016 16.9250682,12.2976762" id="Fill-45" fill="#000000"></path>
            <path d="M33.1215254,12.2718958 C32.3911467,11.7767307 31.5776612,11.4052547 30.6983445,11.2859612 C29.9922947,11.190281 29.3511561,11.3311434 28.6603375,11.4573881 C30.085726,10.5529247 32.1167819,10.8528451 33.1215254,12.2718958" id="Fill-47" fill="#000000"></path>
            <path d="M16.9129037,30.4703574 C16.3196052,31.1570871 15.4411063,31.3702207 14.9506434,30.9464069 C14.4600783,30.5226952 14.5433896,29.6225252 15.1366881,28.9357954 C15.7298844,28.2490656 16.7619213,27.8583718 17.2524864,28.2820834 C17.7429492,28.7058973 17.5062023,29.7836276 16.9129037,30.4703574" id="Fill-49" fill="#333333"></path>
            <path d="M33.3992125,30.4440964 C33.9946577,31.128884 34.8738721,31.3392576 35.3630061,30.9139104 C35.85214,30.4886654 35.7659666,29.5886998 35.1705214,28.9039122 C34.5750762,28.2191247 33.5418126,27.8315998 33.0526787,28.256947 C32.5635447,28.6822942 32.8037672,29.7593089 33.3992125,30.4440964" id="Fill-51" fill="#333333"></path>
            <path d="M44.3536767,26.7383521 C45.744923,26.9999391 47.0286313,28.3293408 47.8406857,29.4124889 C48.7665135,30.6472327 49.3819943,32.1039012 49.5191767,33.6479699 C49.667808,35.3228832 49.2288652,36.9806231 48.4038286,38.4346338 C47.5854365,39.8767868 46.405586,41.1221617 45.0823177,42.1121852 C47.2182538,39.6135642 49.1757096,36.5810359 48.6351578,33.1404359 C48.3873708,31.5627361 47.6567877,30.0801031 46.6756575,28.8302304 C46.0424922,28.0235938 45.2872735,27.2000905 44.3536767,26.7383521" id="Fill-53" fill="#FFFFFF"></path>
            <path d="M19.3132992,0.722967595 C19.2239569,2.10552493 19.0782901,3.6158602 19.5547484,4.94771524 C18.7487252,3.80742489 18.8776276,1.97907588 19.3132992,0.722967595" id="Fill-55" fill="#FFFFFF"></path>
            <path d="M29.7905283,0.706284907 C30.2301866,1.96085985 30.3654268,3.78828887 29.5625724,4.93185034 C30.0347375,3.59846196 29.8843684,2.08863779 29.7905283,0.706284907" id="Fill-57" fill="#FFFFFF"></path>
            <path d="M43.2626371,4.91001564 C44.3710341,4.84888667 45.2946131,5.95483032 45.0264838,7.0197828 C44.6835278,6.03139486 44.175585,5.43257631 43.2626371,4.91001564" id="Fill-59" fill="#FFFFFF"></path>
            <path d="M6.23123,3.38453101 C5.17271753,3.94092728 4.74522365,5.02887979 4.12279173,5.96993878 C4.18340959,4.90345297 4.99025063,3.36725544 6.23123,3.38453101" id="Fill-61" fill="#FFFFFF"></path>
            <path d="M35.8776139,39.4420658 C34.3032874,39.8979775 32.8386455,39.2697189 32.0000133,37.9172149 C31.9351021,37.8125392 31.7737953,37.8888993 31.8159109,38.004615 C32.0381423,38.6149847 32.4701339,39.1141365 33.0034279,39.4538213 C31.0991277,42.6991766 27.3596296,44.0418672 23.795545,42.6702477 C27.4564342,44.357121 31.4575193,43.0525593 33.6417043,39.7653951 C34.3888475,40.0332176 35.2315686,40.0205421 35.9549962,39.6301549 C36.0626363,39.5720926 35.9950673,39.4080257 35.8776139,39.4420658" id="Fill-63" fill="#000000"></path>
            <path d="M35.3685261,19.1049592 C35.3472638,19.0532347 35.2878727,19.0285991 35.2361481,19.0499636 C34.8505654,19.2093282 34.4544538,19.2716839 34.0590577,19.2352927 C33.9900577,19.2289549 33.9210576,19.2189371 33.8524664,19.206466 C33.8452086,19.0657058 33.8239463,18.9276034 33.7895996,18.7939988 C33.8523641,18.7772343 33.9146176,18.7590388 33.9756443,18.7377765 C34.3820804,18.5959941 34.7439475,18.3572027 35.0514324,18.0282512 C35.0896635,17.9873622 35.0875168,17.9232688 35.0466279,17.8850376 C35.0056367,17.8468065 34.9416455,17.8489532 34.9034144,17.8898421 C34.6185207,18.1946691 34.2839469,18.4155717 33.9089953,18.5464163 C33.8502175,18.566963 33.7901107,18.584443 33.7294929,18.6002874 C33.6662172,18.4276339 33.5797371,18.265407 33.4719948,18.1187179 C33.5485593,18.0682201 33.6224661,18.01394 33.6927951,17.9558777 C34.0245066,17.6817174 34.2809825,17.3322192 34.4549649,16.9167875 C34.4765338,16.8651652 34.4525116,16.8056718 34.4006849,16.7841029 C34.3490626,16.762534 34.2896714,16.7868629 34.2681025,16.8384852 C34.1067956,17.2232501 33.8698442,17.5466817 33.5636882,17.7995798 C33.4934615,17.8576421 33.4191458,17.9113088 33.3421724,17.9611933 C33.1817855,17.7870064 32.9868475,17.6423618 32.7606294,17.5398328 C31.7920726,17.10089 30.6230578,17.5922728 30.1495638,18.6372919 C29.6760699,19.6822088 30.0772926,20.8851615 31.0458494,21.3240021 C32.014304,21.7629448 33.1833188,21.271562 33.656915,20.2265429 C33.7775374,19.9602536 33.8411197,19.68364 33.8532841,19.4120352 C33.9155376,19.4224618 33.9778932,19.4313552 34.0404533,19.4370796 C34.4689694,19.4765375 34.897281,19.4092752 35.3135305,19.2373372 C35.3653572,19.2159727 35.3898906,19.1566837 35.3685261,19.1049592" id="Fill-65" fill="#000000"></path>
            <path d="M33.4512539,19.3299097 C33.3954404,19.3046608 33.4411338,18.8203313 33.408116,18.7179045 C33.3206137,18.4460953 33.117089,18.2149705 32.8907687,18.0477347 C32.6471728,17.867619 32.3400969,17.7376943 32.0330209,17.7405566 C31.9255852,17.7415788 31.3720512,17.9138235 31.6363982,17.684232 C32.0245365,17.347205 32.8328086,17.79913 33.1222001,18.0649081 C33.3302226,18.2559617 33.5019561,18.4978198 33.5636984,18.7771935 C33.5798496,18.8501802 33.6268719,19.4095409 33.4512539,19.3299097" id="Fill-67" fill="#FFFFFF"></path>
            <path d="M31.7137192,20.1395823 C31.5233812,20.5595117 31.0287272,20.7456586 30.6087978,20.5554228 C30.1887661,20.3650848 30.0026192,19.8704309 30.1929572,19.4503992 C30.3832952,19.0304698 30.8779492,18.8443229 31.2978786,19.0346609 C31.7178081,19.2248967 31.9040572,19.7196529 31.7137192,20.1395823" id="Fill-69" fill="#FFFFFF"></path>
            <path d="M16.0080928,18.8151588 C16.0248572,18.7617988 16.0817951,18.7321543 16.1351552,18.749021 C16.5331068,18.8744478 16.9331029,18.9024567 17.3238989,18.83223 C17.3921834,18.8199633 17.4599569,18.8040166 17.5272192,18.7857188 C17.5223125,18.6448564 17.531717,18.5053229 17.5543081,18.3692649 C17.4903169,18.3580205 17.4267346,18.3452427 17.3640723,18.329296 C16.9470051,18.223087 16.5659202,18.0163934 16.231142,17.7151441 C16.1895375,17.6777307 16.1861641,17.6136373 16.2236797,17.5720328 C16.2611953,17.5304283 16.3251865,17.527055 16.366791,17.5644683 C16.6768314,17.8436376 17.0291919,18.0348956 17.414059,18.1329268 C17.4744724,18.1482602 17.5358059,18.1605269 17.5975482,18.171158 C17.6456949,17.9935978 17.7178639,17.824522 17.8125218,17.6692463 C17.7319705,17.6253929 17.6536682,17.5777572 17.578637,17.5259305 C17.2245388,17.2814146 16.9388273,16.9552231 16.7296804,16.5563515 C16.7037159,16.5068759 16.7225248,16.4454402 16.7724093,16.419578 C16.8219872,16.3936135 16.8832183,16.4126269 16.9091828,16.4623069 C17.1029964,16.8317385 17.3669345,17.1334989 17.6937394,17.3591036 C17.7687706,17.4109304 17.8473796,17.4579526 17.9283397,17.5009883 C18.0731888,17.3136147 18.2548379,17.1527167 18.4714471,17.0310721 C19.3985016,16.5104537 20.6055431,16.8992053 21.1673572,17.899451 C21.7291712,18.8997989 21.4330331,20.132805 20.5059786,20.6535256 C19.5788218,21.1741441 18.3718825,20.7853925 17.8100684,19.7851467 C17.6668549,19.5302042 17.5796592,19.2601327 17.5441881,18.9905724 C17.4830591,19.0063146 17.4216235,19.0205235 17.359779,19.0316658 C16.9362717,19.1078214 16.503769,19.0777681 16.0742306,18.9422212 C16.0208706,18.9254568 15.9912261,18.8685189 16.0080928,18.8151588" id="Fill-71" fill="#000000"></path>
            <path d="M17.9376215,18.8740594 C17.9909815,18.8441082 17.9037859,18.3655031 17.9278081,18.260623 C17.9916971,17.9822715 18.1744707,17.7344846 18.3855598,17.5483377 C18.6126979,17.3478796 18.9074049,17.1920928 19.2135609,17.1684794 C19.3207921,17.1601994 19.8870018,17.2840929 19.6038458,17.0781148 C19.1882098,16.7757411 18.4218488,17.295644 18.1564795,17.5853421 C17.9657326,17.7936713 17.8153635,18.0494316 17.7779502,18.3330987 C17.768239,18.4072099 17.7694657,18.9685128 17.9376215,18.8740594" id="Fill-73" fill="#FFFFFF"></path>
            <path d="M19.7384625,19.5310015 C19.9642716,19.9329398 20.4731345,20.0758467 20.875175,19.8500375 C21.2771133,19.6243305 21.4200202,19.1153654 21.194211,18.7134271 C20.9684018,18.3113866 20.4595389,18.168582 20.0574984,18.394289 C19.6555601,18.6200981 19.5126533,19.128961 19.7384625,19.5310015" id="Fill-75" fill="#FFFFFF"></path>
        </g>
    </g>
</svg>