<?xml version="1.0" encoding="UTF-8"?>
<svg width="14px" height="14px" viewBox="0 0 14 14" version="1.1" xmlns="http://www.w3.org/2000/svg" xmlns:xlink="http://www.w3.org/1999/xlink">
    <title>Fill 1 Copy 5</title>
    <g id="Symbols" stroke="none" stroke-width="1" fill="none" fill-rule="evenodd" opacity="0.341978561">
        <g id="Sidebar/2" transform="translate(-201.000000, -224.000000)" fill="#000000">
            <path d="M204.947066,226.867665 L202.176064,224.112774 L201.209436,225.079401 L213.582278,237.452244 L214.548907,236.485616 L213.163407,235.100115 C213.657463,234.520134 214.046795,233.864983 214.331415,233.134637 C214.616035,232.404291 214.758343,231.620258 214.758343,230.78251 C214.758343,230.084385 214.656309,229.418492 214.452243,228.784811 C214.248177,228.151129 213.963562,227.568472 213.598388,227.036823 C213.233217,226.505175 212.798238,226.029923 212.293442,225.611046 C211.788645,225.202913 211.235523,224.864596 210.634062,224.596089 L210.634062,225.965476 C211.042195,226.212507 211.412732,226.502491 211.745686,226.835445 C212.089375,227.179134 212.382046,227.557728 212.623705,227.971232 C212.865364,228.384734 213.050632,228.827769 213.179517,229.300346 C213.308402,229.783663 213.372842,230.27771 213.372842,230.78251 C213.372842,231.416192 213.270809,232.020328 213.066743,232.594938 C212.862676,233.169548 212.583431,233.693131 212.228998,234.165707 L211.342922,233.279632 C211.546989,232.903719 211.708094,232.495592 211.826237,232.055236 C211.94438,231.61488 212.003452,231.190643 212.003452,230.78251 C212.003452,230.170308 211.87994,229.53932 211.632912,228.889528 C211.385884,228.239737 211.052936,227.726892 210.634062,227.35098 L210.634062,232.554661 L209.248562,231.185271 L209.248562,224 L204.947066,226.867665 Z M202.385501,234.214038 L204.238205,234.214038 L209.248562,237.565017 L209.248562,234.987342 L201.757192,227.495971 C201.542385,227.614118 201.362486,227.780589 201.217491,227.995396 C201.072496,228.210204 201,228.45186 201,228.72037 L201,232.844651 C201,233.220563 201.134253,233.542767 201.402762,233.811277 C201.671271,234.079787 201.998847,234.214038 202.385501,234.214038 Z" id="Fill-1-Copy-5"></path>
        </g>
    </g>
</svg>