<?xml version="1.0" encoding="UTF-8"?>
<svg width="41px" height="39px" viewBox="0 0 41 39" version="1.1" xmlns="http://www.w3.org/2000/svg" xmlns:xlink="http://www.w3.org/1999/xlink">
    <title>Fill 1 Copy 2</title>
    <defs>
        <filter x="-1.7%" y="-32.4%" width="103.4%" height="164.8%" filterUnits="objectBoundingBox" id="filter-1">
            <feOffset dx="0" dy="0" in="SourceAlpha" result="shadowOffsetOuter1"></feOffset>
            <feGaussianBlur stdDeviation="6" in="shadowOffsetOuter1" result="shadowBlurOuter1"></feGaussianBlur>
            <feColorMatrix values="0 0 0 0 0   0 0 0 0 0   0 0 0 0 0  0 0 0 0.154911495 0" type="matrix" in="shadowBlurOuter1" result="shadowMatrixOuter1"></feColorMatrix>
            <feMerge>
                <feMergeNode in="shadowMatrixOuter1"></feMergeNode>
                <feMergeNode in="SourceGraphic"></feMergeNode>
            </feMerge>
        </filter>
    </defs>
    <g id="Symbols" stroke="none" stroke-width="1" fill="none" fill-rule="evenodd" opacity="0.34">
        <g id="Group-12" transform="translate(-1150.000000, -15.000000)" fill="#000000" filter="url(#filter-1)">
            <path d="M1169.86574,30.25 L1169.86574,25.8437484 C1169.88117,25.7343738 1169.87346,25.6249993 1169.84259,25.5156247 C1169.81173,25.4062502 1169.75772,25.3046865 1169.68055,25.2109382 C1169.52624,25.0703113 1169.34491,25 1169.13657,25 C1168.92824,25 1168.75463,25.0703113 1168.61574,25.2109382 L1161.20833,33.4375011 C1161.13117,33.5156233 1161.07716,33.6015607 1161.0463,33.6953135 C1161.01543,33.7890618 1161,33.8906255 1161,34 C1161,34.1093745 1161.01543,34.2109382 1161.0463,34.3046865 C1161.07716,34.3984393 1161.13117,34.4843767 1161.20833,34.5624989 L1168.56945,42.7421876 C1168.70833,42.8671879 1168.8858,42.9453123 1169.10185,42.9765625 C1169.3179,43.0078127 1169.5108,42.9453132 1169.68055,42.7890627 C1169.75772,42.6953121 1169.81558,42.6093756 1169.85417,42.5312499 C1169.89275,42.4531247 1169.90432,42.3593754 1169.88889,42.25 C1169.88889,42.25 1169.88889,42.0351585 1169.88889,41.6054691 C1169.88889,41.1757775 1169.88889,40.6953149 1169.88889,40.164064 C1169.88889,39.6328087 1169.88889,39.1250036 1169.88889,38.6406269 C1169.88889,38.1562458 1169.88889,37.8593745 1169.88889,37.75 C1171.10803,37.75 1172.28472,37.9609338 1173.41898,38.3828145 C1174.55325,38.8046909 1175.57561,39.3828073 1176.48611,40.1171855 C1177.39661,40.851568 1178.1682,41.7226511 1178.80093,42.7304687 C1179.43365,43.7382863 1179.85802,44.8281193 1180.07407,46 C1180.36728,45.3124964 1180.59491,44.5937536 1180.75695,43.8437501 C1180.91898,43.0937462 1181,42.3203165 1181,41.5234371 C1181,39.960928 1180.71065,38.4960989 1180.13194,37.1289062 C1179.55324,35.7617135 1178.75849,34.5703185 1177.74768,33.5546865 C1176.73688,32.5390589 1175.55633,31.7343782 1174.20602,31.1406269 C1172.8557,30.5468713 1171.40896,30.25 1169.86574,30.25 Z" id="Fill-1-Copy-2" transform="translate(1171.000000, 35.500000) scale(-1, 1) translate(-1171.000000, -35.500000) "></path>
        </g>
    </g>
</svg>