<?xml version="1.0" encoding="UTF-8"?>
<svg width="18px" height="25px" viewBox="0 0 18 25" version="1.1" xmlns="http://www.w3.org/2000/svg" xmlns:xlink="http://www.w3.org/1999/xlink">
    <title>Fill 1</title>
    <g id="Symbols" stroke="none" stroke-width="1" fill="none" fill-rule="evenodd">
        <g id="Sidebar/2" transform="translate(-133.000000, -433.000000)" fill="#000000">
            <path d="M138.334478,433 L134.778159,433 C134.296572,433 133.87982,433.175964 133.527891,433.527892 C133.175962,433.87982 133,434.296574 133,434.778159 L133,456.116072 C133,456.597659 133.175962,457.014411 133.527891,457.36634 C133.87982,457.718269 134.296572,457.894231 134.778159,457.894231 L138.334478,457.894231 C138.816063,457.894231 139.232817,457.718269 139.584745,457.36634 C139.936673,457.014411 140.112637,456.597659 140.112637,456.116072 L140.112637,434.778159 C140.112637,434.296574 139.936673,433.87982 139.584745,433.527892 C139.232817,433.175964 138.816063,433 138.334478,433 Z M149.003434,433 L145.447115,433 C144.96553,433 144.548776,433.175964 144.196848,433.527892 C143.84492,433.87982 143.668956,434.296574 143.668956,434.778159 L143.668956,456.116072 C143.668956,456.597659 143.84492,457.014411 144.196848,457.36634 C144.548776,457.718269 144.96553,457.894231 145.447115,457.894231 L149.003434,457.894231 C149.485019,457.894231 149.901773,457.718269 150.253701,457.36634 C150.60563,457.014411 150.781594,456.597659 150.781594,456.116072 L150.781594,434.778159 C150.781594,434.296574 150.60563,433.87982 150.253701,433.527892 C149.901773,433.175964 149.485019,433 149.003434,433 Z" id="Fill-1"></path>
        </g>
    </g>
</svg>