<?xml version="1.0" encoding="UTF-8"?>
<svg width="41px" height="39px" viewBox="0 0 41 39" version="1.1" xmlns="http://www.w3.org/2000/svg" xmlns:xlink="http://www.w3.org/1999/xlink">
    <title>Fill 1</title>
    <defs>
        <filter x="-1.7%" y="-32.4%" width="103.4%" height="164.8%" filterUnits="objectBoundingBox" id="filter-1">
            <feOffset dx="0" dy="0" in="SourceAlpha" result="shadowOffsetOuter1"></feOffset>
            <feGaussianBlur stdDeviation="6" in="shadowOffsetOuter1" result="shadowBlurOuter1"></feGaussianBlur>
            <feColorMatrix values="0 0 0 0 0   0 0 0 0 0   0 0 0 0 0  0 0 0 0.154911495 0" type="matrix" in="shadowBlurOuter1" result="shadowMatrixOuter1"></feColorMatrix>
            <feMerge>
                <feMergeNode in="shadowMatrixOuter1"></feMergeNode>
                <feMergeNode in="SourceGraphic"></feMergeNode>
            </feMerge>
        </filter>
    </defs>
    <g id="Symbols" stroke="none" stroke-width="1" fill="none" fill-rule="evenodd" opacity="0.34">
        <g id="Group-12" transform="translate(-1096.000000, -15.000000)" fill="#000000" filter="url(#filter-1)">
            <path d="M1114.86574,30.25 L1114.86574,25.8437484 C1114.88117,25.7343738 1114.87346,25.6249993 1114.84259,25.5156247 C1114.81173,25.4062502 1114.75772,25.3046865 1114.68055,25.2109382 C1114.52624,25.0703113 1114.34491,25 1114.13657,25 C1113.92824,25 1113.75463,25.0703113 1113.61574,25.2109382 L1106.20833,33.4375011 C1106.13117,33.5156233 1106.07716,33.6015607 1106.0463,33.6953135 C1106.01543,33.7890618 1106,33.8906255 1106,34 C1106,34.1093745 1106.01543,34.2109382 1106.0463,34.3046865 C1106.07716,34.3984393 1106.13117,34.4843767 1106.20833,34.5624989 L1113.56945,42.7421876 C1113.70833,42.8671879 1113.8858,42.9453123 1114.10185,42.9765625 C1114.3179,43.0078127 1114.5108,42.9453132 1114.68055,42.7890627 C1114.75772,42.6953121 1114.81558,42.6093756 1114.85417,42.5312499 C1114.89275,42.4531247 1114.90432,42.3593754 1114.88889,42.25 C1114.88889,42.25 1114.88889,42.0351585 1114.88889,41.6054691 C1114.88889,41.1757775 1114.88889,40.6953149 1114.88889,40.164064 C1114.88889,39.6328087 1114.88889,39.1250036 1114.88889,38.6406269 C1114.88889,38.1562458 1114.88889,37.8593745 1114.88889,37.75 C1116.10803,37.75 1117.28472,37.9609338 1118.41898,38.3828145 C1119.55325,38.8046909 1120.57561,39.3828073 1121.48611,40.1171855 C1122.39661,40.851568 1123.1682,41.7226511 1123.80093,42.7304687 C1124.43365,43.7382863 1124.85802,44.8281193 1125.07407,46 C1125.36728,45.3124964 1125.59491,44.5937536 1125.75695,43.8437501 C1125.91898,43.0937462 1126,42.3203165 1126,41.5234371 C1126,39.960928 1125.71065,38.4960989 1125.13194,37.1289062 C1124.55324,35.7617135 1123.75849,34.5703185 1122.74768,33.5546865 C1121.73688,32.5390589 1120.55633,31.7343782 1119.20602,31.1406269 C1117.8557,30.5468713 1116.40896,30.25 1114.86574,30.25 Z" id="Fill-1"></path>
        </g>
    </g>
</svg>