<?xml version="1.0" encoding="UTF-8"?>
<svg width="25px" height="25px" viewBox="0 0 25 25" version="1.1" xmlns="http://www.w3.org/2000/svg" xmlns:xlink="http://www.w3.org/1999/xlink">
    <title>Group 8 Copy</title>
    <g id="Symbols" stroke="none" stroke-width="1" fill="none" fill-rule="evenodd">
        <g id="Sidebar/2" transform="translate(-83.000000, -433.000000)">
            <g id="Group-8-Copy" transform="translate(95.031246, 445.445000) rotate(-180.000000) translate(-95.031246, -445.445000) translate(83.000000, 433.000000)">
                <path d="M20.590978,10.4604226 C21.367996,10.9136857 21.7565027,11.5773799 21.7565027,12.451528 C21.7565027,13.3256805 21.367996,13.9893748 20.590978,14.4426379 L3.49658079,24.5438722 C2.75193471,24.9971349 1.98301854,25.0052287 1.18980877,24.568154 C0.39659896,24.1310791 0,23.4592889 0,22.5527636 L0,2.35029908 C0,1.37902099 0.412786657,0.691040815 1.23837245,0.286345 C2.06395815,-0.118355336 2.81668658,-0.0940739489 3.49658079,0.359189161 L20.590978,10.4604226 Z" id="Fill-1-Copy" fill="#000000"></path>
                <rect id="Rectangle" fill="#232425" x="21.6562423" y="5.68434189e-14" width="2.40624915" height="24.8645745"></rect>
            </g>
        </g>
    </g>
</svg>